<svg xmlns="http://www.w3.org/2000/svg" width="117" height="36" fill="none"><path fill="#fff" d="M112.675.7c1.99 0 3.633 1.665 3.633 3.679V30.65c0 2.014-1.643 3.678-3.633 3.678H4.558c-1.99 0-3.633-1.664-3.633-3.678V4.38C.925 2.365 2.57.7 4.558.7h108.117zm0-.7H4.558C2.136 0 .234 2.014.234 4.379V30.65c0 2.452 1.902 4.379 4.324 4.379h108.117c2.422 0 4.325-1.927 4.325-4.379V4.38C117 2.014 115.097 0 112.675 0z"></path><path fill="#fff" d="M59.136 15.977c-2.076 0-3.72 1.577-3.72 3.766 0 2.102 1.644 3.766 3.72 3.766 2.075 0 3.719-1.577 3.719-3.766 0-2.277-1.644-3.766-3.72-3.766zm0 5.955c-1.125 0-2.076-.963-2.076-2.276 0-1.314.951-2.277 2.075-2.277s2.076.875 2.076 2.276c0 1.314-.951 2.277-2.076 2.277zm-8.044-5.955c-2.076 0-3.72 1.577-3.72 3.766 0 2.102 1.644 3.766 3.72 3.766 2.076 0 3.719-1.577 3.719-3.766 0-2.277-1.643-3.766-3.72-3.766zm0 5.955c-1.125 0-2.076-.963-2.076-2.276 0-1.314.951-2.277 2.076-2.277s2.076.875 2.076 2.276c0 1.314-.952 2.277-2.076 2.277zm-9.601-4.816v1.576h3.719c-.086.876-.432 1.576-.865 2.014-.519.526-1.384 1.139-2.854 1.139-2.335 0-4.065-1.84-4.065-4.204s1.816-4.203 4.065-4.203c1.21 0 2.162.525 2.854 1.138l1.125-1.138c-.952-.876-2.163-1.577-3.893-1.577-3.113 0-5.795 2.628-5.795 5.78 0 3.153 2.682 5.78 5.795 5.78 1.73 0 2.941-.525 3.979-1.664 1.038-1.05 1.384-2.54 1.384-3.678 0-.35 0-.7-.087-.963h-5.362zm39.268 1.226c-.346-.876-1.211-2.365-3.114-2.365-1.903 0-3.46 1.49-3.46 3.766 0 2.102 1.557 3.766 3.633 3.766 1.644 0 2.682-1.051 3.028-1.664l-1.212-.876c-.432.613-.95 1.051-1.816 1.051-.865 0-1.384-.35-1.816-1.139l4.93-2.101-.173-.438zm-5.017 1.226c0-1.401 1.125-2.19 1.903-2.19.606 0 1.211.35 1.384.789l-3.287 1.4zm-4.065 3.59h1.643V12.212h-1.643v10.947zm-2.595-6.393c-.432-.437-1.124-.875-1.989-.875-1.816 0-3.546 1.664-3.546 3.765s1.643 3.679 3.546 3.679c.865 0 1.557-.438 1.903-.876h.086v.525c0 1.401-.778 2.19-1.989 2.19-.952 0-1.643-.7-1.816-1.314l-1.384.613c.432.963 1.47 2.19 3.286 2.19 1.903 0 3.46-1.139 3.46-3.854v-6.656h-1.557v.613zm-1.903 5.167c-1.124 0-2.075-.963-2.075-2.277 0-1.313.951-2.277 2.075-2.277 1.125 0 1.99.964 1.99 2.277s-.865 2.277-1.99 2.277zm21.105-9.72h-3.892v10.946h1.643v-4.116h2.249c1.816 0 3.546-1.313 3.546-3.415s-1.73-3.415-3.546-3.415zm.086 5.254h-2.335V13.7h2.335c1.211 0 1.903 1.051 1.903 1.84-.086.963-.778 1.926-1.903 1.926zm9.947-1.576c-1.21 0-2.422.525-2.854 1.664l1.47.613c.346-.613.865-.789 1.47-.789.866 0 1.644.526 1.731 1.402v.087c-.26-.175-.952-.438-1.644-.438-1.557 0-3.114.876-3.114 2.452 0 1.49 1.298 2.453 2.682 2.453 1.124 0 1.643-.526 2.076-1.051h.086v.875h1.557v-4.203c-.173-1.927-1.643-3.065-3.46-3.065zm-.173 6.042c-.519 0-1.297-.262-1.297-.963 0-.876.951-1.138 1.73-1.138.692 0 1.038.175 1.47.35-.173 1.05-1.038 1.751-1.903 1.751zm9.082-5.78l-1.816 4.73h-.087l-1.903-4.73h-1.73l2.855 6.656-1.644 3.678h1.644l4.411-10.334h-1.73zm-14.53 7.006h1.642V12.212h-1.643v10.947z"></path><path fill="#fff" fill-rule="evenodd" d="M23.235 13.585l-12.19-7.017c-.681-.382-1.23-.363-1.646-.06l10.457 10.456 3.379-3.379zm-3.93 3.93L8.941 7.15c-.042.192-.059.409-.059.643v19.354c0 .25.04.48.108.681l10.315-10.314zM9.231 28.459l-.003.003c.026.026.053.051.08.074l-.077-.077zm.12.111l10.505-10.505 3.381 3.382-12.192 7.102c-.708.319-1.273.348-1.695.021zm11.055-11.055l3.472-3.472 4.033 2.334c1.211.7 1.211 1.839 0 2.54l-3.946 2.157-3.559-3.56zM9.231 6.57l-.054.054a.852.852 0 01.051-.057l.003.003z" clip-rule="evenodd"></path></svg>