<svg xmlns="http://www.w3.org/2000/svg" width="113" height="36" fill="none"><path stroke="#fff" stroke-width="0.778" d="M108.593 34.64H3.503a3.124 3.124 0 01-3.114-3.113V3.503A3.124 3.124 0 013.503.389h105.09a3.124 3.124 0 013.114 3.114v28.024a3.124 3.124 0 01-3.114 3.114z"></path><path fill="#fff" d="M23.645 17.34c0-2.715 2.277-4.029 2.365-4.116-1.314-1.84-3.24-2.102-3.941-2.19-1.664-.175-3.328.964-4.116.964-.876 0-2.19-.964-3.59-.964-1.84 0-3.504 1.051-4.467 2.715-1.927 3.328-.526 8.232 1.313 10.947.964 1.314 2.015 2.802 3.416 2.715 1.401-.088 1.927-.876 3.59-.876 1.664 0 2.102.876 3.591.876 1.489 0 2.452-1.314 3.328-2.627 1.05-1.49 1.489-2.978 1.489-3.066-.088-.087-2.978-1.138-2.978-4.378zM20.93 9.283c.701-.963 1.226-2.19 1.139-3.503-1.05.087-2.452.7-3.153 1.664-.7.788-1.313 2.101-1.138 3.328 1.138.087 2.364-.614 3.153-1.49zm24.988 13.81h-1.805l-.985-3.12H39.68l-.903 3.12h-1.723L40.5 12.504h2.134l3.283 10.589zM42.8 18.66l-.903-2.79c-.082-.247-.246-.986-.574-1.97a22.446 22.446 0 01-.493 1.97l-.903 2.79H42.8zm11.902.576c0 1.313-.328 2.298-1.067 3.119-.657.656-1.396.985-2.38.985-.985 0-1.724-.329-2.134-1.067v4.022h-1.724v-8.208c0-.821 0-1.642-.082-2.545h1.477l.082 1.231c.575-.903 1.396-1.395 2.545-1.395.903 0 1.641.328 2.216 1.067.739.657 1.067 1.56 1.067 2.79zm-1.724 0c0-.739-.164-1.396-.492-1.806-.329-.493-.821-.739-1.478-.739-.41 0-.82.164-1.149.41a1.824 1.824 0 00-.656 1.068c-.082.246-.082.41-.082.492v1.313c0 .575.164.985.492 1.396.328.41.82.574 1.313.574.657 0 1.15-.246 1.478-.738.41-.493.574-1.15.574-1.97zm10.506 0c0 1.313-.328 2.298-1.067 3.119-.656.656-1.395.985-2.38.985-.985 0-1.724-.329-2.134-1.067v4.022h-1.724v-8.208c0-.821 0-1.642-.082-2.545h1.478l.082 1.231c.574-.903 1.395-1.395 2.544-1.395.903 0 1.642.328 2.216 1.067.74.657 1.067 1.56 1.067 2.79zm-1.723 0c0-.739-.164-1.396-.493-1.806-.328-.493-.82-.739-1.477-.739-.41 0-.821.164-1.15.41a1.824 1.824 0 00-.656 1.068c-.082.246-.082.41-.082.492v1.313c0 .575.164.985.492 1.396s.821.574 1.314.574c.656 0 1.149-.246 1.477-.738.41-.493.575-1.15.575-1.97zm11.573.903c0 .903-.328 1.641-.903 2.216-.657.656-1.642.903-2.873.903-1.149 0-2.052-.247-2.708-.657l.41-1.395c.739.41 1.56.656 2.462.656.657 0 1.15-.164 1.478-.41.328-.328.492-.657.492-1.15 0-.41-.164-.82-.41-1.066-.328-.329-.82-.575-1.477-.821-1.888-.657-2.791-1.724-2.791-3.037 0-.903.328-1.56.985-2.134.656-.575 1.477-.82 2.626-.82.985 0 1.724.163 2.38.492l-.41 1.395c-.574-.328-1.231-.492-2.052-.492-.574 0-1.067.164-1.395.41-.246.246-.41.574-.41.985s.164.739.492 1.067c.246.246.82.492 1.56.82.902.329 1.559.822 2.052 1.314.246.41.492.985.492 1.724zm5.581-3.366h-1.888v3.694c0 .903.329 1.395.985 1.395.329 0 .575 0 .739-.082l.082 1.313c-.328.165-.739.165-1.313.165-.657 0-1.231-.165-1.56-.575-.41-.41-.574-1.067-.574-2.052v-3.858h-1.15V15.46h1.15v-1.395l1.641-.493v1.888h1.888v1.313zm8.455 2.463c0 1.149-.329 2.134-.985 2.873-.739.738-1.642 1.149-2.791 1.149-1.15 0-2.052-.41-2.709-1.15-.656-.738-.985-1.641-.985-2.79 0-1.15.329-2.134 1.067-2.873.657-.739 1.642-1.15 2.791-1.15 1.15 0 2.052.411 2.709 1.15.574.739.903 1.642.903 2.79zm-1.806.082c0-.739-.164-1.313-.493-1.806a1.76 1.76 0 00-1.56-.903 1.76 1.76 0 00-1.559.903c-.328.492-.492 1.15-.492 1.806 0 .739.164 1.313.492 1.806a1.76 1.76 0 001.56.903c.657 0 1.15-.329 1.56-.903.328-.493.492-1.15.492-1.806zm7.305-2.38c-.164 0-.329-.082-.575-.082-.574 0-1.067.246-1.395.656-.246.41-.41.903-.41 1.478v4.022h-1.724v-5.253c0-.903 0-1.642-.082-2.38h1.477l.082 1.477h.082c.164-.493.493-.903.821-1.232.41-.246.82-.41 1.231-.41h.41v1.724h.083zm7.551 1.97c0 .328 0 .574-.082.738h-5.089c0 .739.246 1.313.739 1.724.41.328.985.574 1.641.574.74 0 1.478-.082 2.052-.328l.247 1.15c-.74.328-1.56.492-2.545.492-1.149 0-2.134-.329-2.79-1.067-.657-.657-.986-1.642-.986-2.791 0-1.15.329-2.134.903-2.873.657-.82 1.56-1.231 2.709-1.231 1.067 0 1.97.41 2.462 1.231.575.657.739 1.478.739 2.38zm-1.56-.411c0-.492-.081-.903-.328-1.313-.328-.493-.739-.739-1.313-.739-.575 0-.985.246-1.313.657-.247.328-.41.82-.493 1.313h3.448v.082z"></path></svg>